<svg width="80" height="126" viewBox="0 0 80 126" fill="none" xmlns="http://www.w3.org/2000/svg">
<path d="M21.959 125.291C27.1836 125.291 30.3574 122.215 30.3086 117.43L29.2344 59.8613C29.1855 56.7363 29.6738 55.9551 31.7246 54.9785C39.3418 51.3164 42.9551 47.459 42.3691 36.2285L40.8555 6.63867C40.6602 3.61133 39 1.80469 36.2656 1.80469C33.5312 1.80469 31.9199 3.75781 32.0176 6.78516L32.4082 35.252C32.5059 37.3027 31.4316 38.4746 29.7715 38.4746C28.0137 38.4746 27.0371 37.4004 26.9883 35.3496L26.4023 5.66211C26.3535 2.83008 24.6445 0.876953 21.959 0.876953C19.2734 0.876953 17.5645 2.83008 17.5156 5.66211L16.9785 35.3496C16.9297 37.3027 15.9043 38.4746 14.1465 38.4746C12.4863 38.4746 11.4121 37.3027 11.4609 35.252L11.9492 6.78516C11.998 3.75781 10.4355 1.80469 7.70117 1.80469C4.9668 1.80469 3.25781 3.66016 3.0625 6.63867L1.5 36.2285C0.914062 47.459 4.57617 51.3164 12.2422 54.9785C14.293 55.9551 14.7324 56.7363 14.6836 59.8613L13.6094 117.43C13.4629 122.264 16.832 125.291 21.959 125.291ZM63.6094 79.2461L62.9746 117.43C62.877 122.264 66.1973 125.291 71.3242 125.291C76.5977 125.291 79.6738 122.264 79.6738 117.479V5.32031C79.6738 2.68359 78.0137 0.876953 75.4258 0.876953C73.3262 0.876953 71.8613 2 70.0547 4.49023C61.6074 16.1602 54.8203 41.5996 54.8203 60.8867V64.4512C54.8203 68.5527 55.8945 70.8477 59.8496 73.4844L61.1191 74.3633C63.1211 75.6816 63.6582 76.707 63.6094 79.2461Z" fill="url(#paint0_linear_1_5)"/>
<defs>
<linearGradient id="paint0_linear_1_5" x1="78" y1="1" x2="13" y2="102" gradientUnits="userSpaceOnUse">
<stop stop-color="#FF9538"/>
<stop offset="1" stop-color="#F15701"/>
</linearGradient>
</defs>
</svg>
